<?xml version="1.0" encoding="utf-8"?>
<svg version="1.1" width="269" height="161" viewBox="0 0 269 161" xmlns="http://www.w3.org/2000/svg"><desc>Created with Fabric.js 3.6.6</desc><defs><linearGradient id="gradient-1"/><linearGradient id="gradient-2"/><linearGradient gradientUnits="userSpaceOnUse" x1="-0.002" y1="-30.482" x2="-0.002" y2="5.494" id="gradient-0" gradientTransform="matrix(0.003669, -0.995505, 2.781376, 0.010167, 34.70084, -13.271084)"><stop offset="0" style="stop-color: rgb(255, 107, 107);"/><stop offset="1" style="stop-color: rgb(248, 231, 28);"/></linearGradient><linearGradient gradientUnits="userSpaceOnUse" x1="232.908" y1="72.702" x2="232.908" y2="143.154" id="gradient-3" gradientTransform="matrix(-0.000669, 1.025552, -2.470947, -0.001702, 501.40426, -126.421848)"><stop offset="0" style="stop-color: rgb(248, 231, 28);"/><stop offset="1" style="stop-color: rgb(255, 107, 107);"/></linearGradient></defs><g transform="matrix(2.662494, 0, 0, 2.674499, 135.058838, 87.298775)" style=""><path d="M -36.23 -29.88 L -36.23 -27.27 L -37.62 -27.27 Q -40.24 -27.27 -41.31 -26.63 Q -42.38 -25.99 -42.38 -24.41 Q -42.38 -23.83 -42.21 -22.79 L -41.8 -20.35 Q -41.59 -19.12 -41.59 -18.31 Q -41.59 -14.53 -45.07 -13.41 Q -41.61 -12.26 -41.61 -8.43 Q -41.61 -7.64 -41.8 -6.44 L -42.21 -4.02 Q -42.38 -2.96 -42.38 -2.38 Q -42.38 -0.8 -41.31 -0.16 Q -40.24 0.48 -37.62 0.48 L -36.23 0.48 L -36.23 3.08 L -38.15 3.08 Q -41.73 3.08 -43.64 1.78 Q -45.55 0.48 -45.55 -1.98 Q -45.55 -3.03 -45.3 -4.35 L -44.7 -7.48 Q -44.58 -8.18 -44.58 -8.87 Q -44.58 -12.1 -48.52 -12.1 L -50.12 -12.1 L -50.12 -14.71 L -48.52 -14.71 Q -44.58 -14.71 -44.58 -17.92 Q -44.58 -18.61 -44.7 -19.31 L -45.3 -22.44 Q -45.55 -23.76 -45.55 -24.81 Q -45.55 -29.88 -38.15 -29.88 Z M -21.7 -1.47 Q -25.76 -1.47 -28.17 -5.18 Q -30.59 -8.89 -30.59 -15.15 Q -30.59 -21.39 -28.17 -25.09 Q -25.76 -28.79 -21.7 -28.79 Q -17.64 -28.79 -15.22 -25.09 Q -12.8 -21.39 -12.8 -15.15 Q -12.8 -8.89 -15.22 -5.18 Q -17.64 -1.47 -21.7 -1.47 Z M -21.7 -4.07 Q -16.49 -4.07 -16.49 -15.15 Q -16.49 -26.18 -21.7 -26.18 Q -26.9 -26.18 -26.9 -15.15 Q -26.9 -4.07 -21.7 -4.07 Z M -0.01 -1.47 Q -4.07 -1.47 -6.49 -5.18 Q -8.9 -8.89 -8.9 -15.15 Q -8.9 -21.39 -6.49 -25.09 Q -4.07 -28.79 -0.01 -28.79 Q 4.05 -28.79 6.47 -25.09 Q 8.89 -21.39 8.89 -15.15 Q 8.89 -8.89 6.47 -5.18 Q 4.05 -1.47 -0.01 -1.47 Z M -0.01 -4.07 Q 5.2 -4.07 5.2 -15.15 Q 5.2 -26.18 -0.01 -26.18 Q -5.21 -26.18 -5.21 -15.15 Q -5.21 -4.07 -0.01 -4.07 Z M 15.77 -2.12 Q 16.09 -4.93 17.02 -7.15 Q 17.95 -9.36 21.33 -15.32 L 26.76 -24.88 L 14.37 -24.88 L 14.37 -28.14 L 30.05 -28.14 L 30.05 -25.22 L 29.2 -23.81 Q 20.82 -9.68 19.9 -2.12 Z M 36.22 3.08 L 36.22 0.48 L 37.59 0.48 Q 40.23 0.48 41.3 -0.16 Q 42.37 -0.8 42.37 -2.38 Q 42.37 -2.96 42.2 -4.02 L 41.79 -6.44 Q 41.58 -7.67 41.58 -8.48 Q 41.58 -12.26 45.04 -13.41 Q 41.58 -14.53 41.58 -18.33 Q 41.58 -19.12 41.79 -20.35 L 42.2 -22.79 Q 42.37 -23.83 42.37 -24.41 Q 42.37 -25.99 41.29 -26.63 Q 40.21 -27.27 37.59 -27.27 L 36.22 -27.27 L 36.22 -29.88 L 38.12 -29.88 Q 41.72 -29.88 43.62 -28.58 Q 45.52 -27.27 45.52 -24.81 Q 45.52 -23.76 45.27 -22.44 L 44.69 -19.31 Q 44.55 -18.61 44.55 -17.92 Q 44.55 -14.71 48.51 -14.71 L 50.11 -14.71 L 50.11 -12.1 L 48.51 -12.1 Q 44.55 -12.1 44.55 -8.87 Q 44.55 -8.18 44.69 -7.48 L 45.27 -4.35 Q 45.52 -3.05 45.52 -1.98 Q 45.52 3.08 38.12 3.08 Z" style="fill: url(&quot;#gradient-0&quot;); paint-order: fill; text-wrap-mode: nowrap;"/><path d="M 165.32 107.52 Q 164.65 108.43 162.85 111.6 Q 155.38 125.04 154.49 125.04 Q 153.15 125.04 152.33 123.47 Q 151.5 121.91 150.05 115.17 Q 148.6 108.43 147.6 102.28 Q 147.22 100.54 146.87 99.44 Q 146.37 97.96 146.37 97.23 Q 146.37 96.46 146.96 95.84 Q 147.54 95.22 148.25 95.22 Q 149.11 95.22 149.75 96.55 Q 150.4 97.88 151.18 103.01 Q 152.88 114.14 154.65 119.84 Q 159.58 111.97 160.78 109.84 Q 161.98 107.7 164.17 102.93 Q 164.74 101.88 165.75 101.88 Q 166.18 101.88 166.73 102.74 Q 167.29 103.6 168.67 107.46 Q 172.1 117.02 173.34 118.93 Q 180.27 107.46 181.4 95.14 Q 181.4 94.87 181.92 94.38 Q 182.44 93.9 182.92 93.9 Q 184.49 93.9 184.49 95.91 Q 184.49 98 183.44 102.17 Q 182.38 106.34 180.92 109.86 Q 179.45 113.37 175.98 120.57 Q 175.41 121.73 175.01 122.64 Q 174.82 123.01 174.25 123.27 Q 173.69 123.52 173.36 123.52 Q 172.51 123.52 171.64 122.6 Q 170.77 121.67 169 117.17 Q 167.23 112.66 166.44 110.4 Q 165.89 108.84 165.32 107.52 Z M 190.49 117.2 Q 197.82 103.66 202.57 103.66 Q 203.84 103.66 204.62 105.1 Q 205.41 106.53 205.9 111.48 Q 206.4 116.74 208.13 119.09 Q 209.02 120.29 209.02 120.86 Q 209.02 121.38 208.43 121.81 Q 207.84 122.24 207.17 122.24 Q 205.63 122.24 204.45 120.52 Q 203.26 118.79 202.93 114.46 Q 202.59 110.36 202.22 109.1 Q 201.84 107.84 200.98 107.84 Q 198.91 107.84 192.64 118.66 Q 190.77 121.89 189.88 122.88 Q 188.99 123.88 188.26 123.88 Q 187.4 123.88 186.81 123.37 Q 186.22 122.85 186.22 122.1 Q 186.22 121.55 186.53 119.98 Q 188.95 107.46 190.35 95.22 Q 190.67 92.36 191.37 91.42 Q 192.07 90.47 192.54 90.47 Q 193.39 90.47 194.08 91.16 Q 194.77 91.85 194.77 93.07 Q 194.77 96.7 193 103.03 Q 192.13 106.16 191.16 110.99 Q 190.2 115.82 190.2 116.96 Q 190.2 117.2 190.41 117.2 Z M 218.87 96.72 Q 218.45 96.72 218.24 95.83 Q 218.16 95.56 218.02 95.22 Q 217.49 93.94 217.49 92.99 Q 217.49 92.21 218.42 91.39 Q 219.36 90.57 220.5 90.57 Q 221.08 90.57 221.78 91.01 Q 222.49 91.46 222.49 91.87 Q 222.49 92.52 222.01 94.08 Q 221.53 95.64 220.47 96.18 Q 219.42 96.72 218.87 96.72 Z M 216.29 118.73 Q 216.29 120.23 216.7 122.1 Q 216.78 122.46 216.78 122.7 Q 216.78 123.05 216.13 123.61 Q 215.48 124.17 214.75 124.17 Q 212.84 124.17 212.84 120.67 Q 212.84 117.04 214.33 109.2 Q 214.85 106.46 214.85 105.83 Q 214.85 104.58 215.3 103.71 Q 215.75 102.83 216.58 102.83 Q 217.59 102.83 218.17 103.31 Q 218.75 103.79 218.75 104.39 Q 218.75 104.98 218.47 105.94 Q 217 111.15 216.64 113.39 Q 216.29 115.64 216.29 118.73 Z M 234.11 118.6 Q 234.11 117.32 230.95 115.68 Q 226.95 113.63 225.54 112.4 Q 224.13 111.17 224.13 109.65 Q 224.13 105.73 228.07 103.14 Q 232 100.56 234.48 100.56 Q 236.08 100.56 236.8 101.11 Q 237.52 101.67 237.52 103.03 Q 237.52 103.64 236.99 104.07 Q 236.47 104.5 236.18 104.5 Q 235.96 104.5 235.33 104.21 Q 234.7 103.93 234.5 103.93 Q 233.52 103.93 230.5 105.37 Q 227.49 106.81 227.49 108.62 Q 227.49 109.73 228.55 110.62 Q 229.61 111.52 232.37 112.82 Q 234.6 113.89 235.93 115.1 Q 237.26 116.31 237.26 117.95 Q 237.26 120.96 233.1 122.67 Q 228.94 124.37 225.16 124.37 Q 221.97 124.37 221.97 122.2 Q 221.97 121.45 222.69 121.1 Q 223.41 120.74 224.13 120.74 Q 224.43 120.74 225.26 120.94 Q 226.07 121.14 226.32 121.14 Q 228.51 121.14 231.01 120.41 Q 233.52 119.68 234.11 118.6 Z M 245.14 113.91 Q 245.39 113.57 248.66 110.73 Q 251.76 108.03 252.98 106.81 Q 257.53 102.26 259.52 102.26 Q 261.06 102.26 261.06 103.74 Q 261.06 105.41 259.54 106.2 Q 257.57 107.2 254.28 109.54 Q 250.99 111.88 250.99 112.84 Q 250.99 113.24 253.31 115.79 Q 255.64 118.34 257.34 119.55 Q 259.03 120.76 260.63 120.76 L 261.28 120.74 Q 261.97 120.71 261.97 121.36 Q 261.97 122.22 260.88 123.12 Q 259.8 124.02 258.03 124.02 Q 256.88 124.02 255.71 123.22 Q 254.54 122.42 251.54 118.91 Q 249.16 116.01 248.56 115.45 Q 247.97 114.89 247.58 114.89 Q 247.36 114.89 246.2 115.92 Q 245.04 116.94 244.93 117.47 Q 244.82 118.01 244.82 121.53 L 244.82 122.46 Q 244.82 123.19 244.13 123.76 Q 243.44 124.33 242.63 124.33 Q 241.8 124.33 241.33 123.85 Q 240.86 123.37 240.86 122.85 Q 240.86 122.14 241.39 119.5 Q 242.14 115.7 242.77 109.31 Q 244.23 94.24 245.02 92.26 Q 245.81 90.27 247.26 90.27 Q 247.78 90.27 248.12 90.83 Q 248.47 91.38 248.47 92.25 Q 248.47 93.82 247.11 100.62 Q 245.75 107.44 245.14 113.91 Z M 282.05 116.43 Q 282.05 118.44 278.49 121.28 Q 274.94 124.12 271.15 124.12 Q 267.98 124.12 266.26 122.24 Q 264.53 120.37 264.53 117.02 Q 264.53 111.38 268.33 106.3 Q 272.14 101.21 276.65 101.21 Q 278.13 101.21 279.07 102.18 Q 280 103.14 280 104.5 Q 280 107.54 277.03 110.32 Q 274.05 113.1 269.06 115.78 Q 268.04 116.31 268.04 117.16 Q 268.04 118.79 268.99 119.78 Q 269.93 120.76 271.78 120.76 Q 276.02 120.76 280.44 116.07 Q 281.09 115.42 281.42 115.42 Q 282.05 115.42 282.05 116.43 Z M 268.35 113.35 Q 276.71 108.39 276.71 105.37 Q 276.71 104.19 275.65 104.19 Q 273.83 104.19 271.56 106.85 Q 269.28 109.51 268.35 113.35 Z M 290.15 115.29 Q 290.35 114.93 290.62 114.3 Q 291.96 111.23 293.09 109.48 Q 294.21 107.74 295.56 106.14 Q 296.91 104.54 298.02 103.72 Q 299.14 102.89 300.04 102.56 Q 300.95 102.24 301.8 102.24 Q 303.51 102.24 304.6 103.27 Q 305.68 104.31 305.68 105.69 Q 305.68 106.3 305.3 106.79 Q 304.91 107.28 304.12 107.28 Q 303.3 107.28 302.61 106.55 Q 301.9 105.83 301.13 105.83 Q 299.08 105.83 295.45 110.79 Q 291.83 115.76 291.04 121.73 Q 290.84 123.27 290.29 123.76 Q 289.74 124.25 288.73 124.25 Q 287.77 124.25 287.33 122.81 Q 286.9 121.38 286.9 117.97 Q 286.9 117.04 287 113.89 Q 287.12 110.16 287.47 107.87 Q 287.53 107.5 287.67 106.12 Q 287.81 104.6 288.01 104.01 Q 288.22 103.42 288.86 102.91 Q 289.5 102.4 290.25 102.4 Q 290.98 102.4 291.34 102.86 Q 291.71 103.32 291.71 103.85 Q 291.71 104.62 291.31 106.02 Q 290.86 107.58 290.78 108.17 Q 290.72 108.84 290.56 109.57 Q 290.37 110.42 290.17 114.02 L 290.15 114.75 Z M 317.43 118.6 Q 317.43 117.32 314.27 115.68 Q 310.27 113.63 308.86 112.4 Q 307.45 111.17 307.45 109.65 Q 307.45 105.73 311.38 103.14 Q 315.32 100.56 317.8 100.56 Q 319.4 100.56 320.12 101.11 Q 320.84 101.67 320.84 103.03 Q 320.84 103.64 320.31 104.07 Q 319.79 104.5 319.5 104.5 Q 319.28 104.5 318.65 104.21 Q 318.02 103.93 317.82 103.93 Q 316.83 103.93 313.82 105.37 Q 310.8 106.81 310.8 108.62 Q 310.8 109.73 311.87 110.62 Q 312.93 111.52 315.69 112.82 Q 317.92 113.89 319.25 115.1 Q 320.58 116.31 320.58 117.95 Q 320.58 120.96 316.42 122.67 Q 312.26 124.37 308.48 124.37 Q 305.28 124.37 305.28 122.2 Q 305.28 121.45 306 121.1 Q 306.72 120.74 307.45 120.74 Q 307.75 120.74 308.58 120.94 Q 309.38 121.14 309.64 121.14 Q 311.83 121.14 314.33 120.41 Q 316.83 119.68 317.43 118.6 Z" transform="matrix(0.486675, -0.001139, 0.001115, 0.472419, -114.105972, -36.426365)" style="fill: url(&quot;#gradient-3&quot;); line-height: 64.5831px; text-wrap-mode: nowrap;"/><path transform="matrix(0.486675, -0.001139, 0.001115, 0.472419, -114.105972, -36.426365)" style="fill: url(&quot;#gradient-3&quot;); line-height: 64.5831px; text-wrap-mode: nowrap;"/></g></svg>